<svg fill="none" height="17" viewBox="0 0 17 17" width="17" xmlns="http://www.w3.org/2000/svg"><path d="m8.12696 4.76367c-2.29743 0-4.1282 1.86666-4.1282 4.1282 0 2.29743 1.83077 4.12823 4.1282 4.12823 2.26154 0 4.12824-1.8308 4.12824-4.12823 0-2.26154-1.8667-4.1282-4.12824-4.1282zm0 6.82053c-1.47179 0-2.6923-1.1846-2.6923-2.69233 0-1.47179 1.18461-2.65641 2.6923-2.65641 1.4718 0 2.65644 1.18462 2.65644 2.65641 0 1.50773-1.18464 2.69233-2.65644 2.69233zm5.24104-6.96412c0-.53846-.4308-.96923-.9692-.96923-.5385 0-.9693.43077-.9693.96923s.4308.96923.9693.96923c.5384 0 .9692-.43077.9692-.96923zm2.7282.96923c-.0718-1.29231-.359-2.44103-1.2923-3.37436s-2.0821-1.220513-3.3744-1.292308c-1.3282-.071795-5.31279-.071795-6.641 0-1.29231.071795-2.40513.358978-3.37436 1.292308-.93333.93333-1.220509 2.08205-1.292304 3.37436-.071795 1.3282-.071795 5.31279 0 6.64099.071795 1.2923.358974 2.4052 1.292304 3.3744.96923.9333 2.08205 1.2205 3.37436 1.2923 1.32821.0718 5.3128.0718 6.641 0 1.2923-.0718 2.4411-.359 3.3744-1.2923.9333-.9692 1.2205-2.0821 1.2923-3.3744.0718-1.3282.0718-5.31279 0-6.64099zm-1.7231 8.04099c-.2513.718-.8256 1.2564-1.5077 1.5436-1.0769.4308-3.58972.3231-4.73844.3231-1.18461 0-3.69743.1077-4.73846-.3231-.71795-.2872-1.25641-.8256-1.54359-1.5436-.43077-1.041-.32307-3.5538-.32307-4.73843 0-1.14872-.1077-3.66154.32307-4.73846.28718-.68205.82564-1.22051 1.54359-1.50769 1.04103-.43077 3.55385-.32308 4.73846-.32308 1.14872 0 3.66154-.10769 4.73844.32308.6821.25128 1.2205.82564 1.5077 1.50769.4308 1.07692.3231 3.58974.3231 4.73846 0 1.18463.1077 3.69743-.3231 4.73843z" fill="#fff"/></svg>