<svg width="303" height="52" viewBox="0 0 303 52" fill="none" xmlns="http://www.w3.org/2000/svg">
<path d="M120.083 7.32207H117.074V10H115.719V2.85174H120.083C120.708 2.85174 121.238 3.07223 121.672 3.51322C122.113 3.94709 122.334 4.46988 122.334 5.08157C122.334 5.67904 122.113 6.20182 121.672 6.64992C121.238 7.09802 120.708 7.32207 120.083 7.32207ZM120.979 5.08157C120.979 4.84685 120.89 4.64414 120.712 4.47343C120.541 4.29562 120.331 4.20671 120.083 4.20671H117.074V5.9671H120.083C120.331 5.9671 120.541 5.88175 120.712 5.71104C120.89 5.53323 120.979 5.3234 120.979 5.08157ZM131.887 10H130.382L129.657 8.44232H126.019L125.272 10H123.768L127.15 2.85174H128.505L131.887 10ZM129.006 7.06601L127.832 4.58012L126.648 7.06601H129.006ZM139.84 8.50633C139.05 9.58746 138.03 10.128 136.778 10.128C135.761 10.128 134.893 9.76884 134.174 9.05045C133.456 8.32496 133.097 7.45365 133.097 6.43654C133.097 5.39808 133.456 4.52322 134.174 3.81195C134.9 3.09357 135.785 2.73438 136.831 2.73438C138.097 2.76283 139.093 3.28917 139.818 4.3134L138.709 5.08157C138.182 4.43431 137.539 4.11069 136.778 4.11069C136.13 4.11069 135.579 4.33474 135.124 4.78284C134.676 5.23094 134.452 5.77506 134.452 6.4152C134.452 7.06957 134.676 7.62436 135.124 8.07957C135.579 8.52767 136.13 8.75172 136.778 8.75172C137.496 8.75172 138.14 8.42454 138.709 7.77017L139.84 8.50633ZM148.462 10H147.139V6.89531H143.127V10H141.772V2.85174H143.127V5.50833H147.139V2.85174H148.462V10ZM156.447 10H150.653V2.85174H156.34V4.20671H152.008V5.50833H154.515V6.89531H152.008V8.64503H156.447V10ZM164.289 4.20671H159.851V5.50833H162.507V6.89531H159.851V10H158.496V2.85174H164.289V4.20671ZM172.132 10H166.338V2.85174H172.025V4.20671H167.693V5.50833H170.201V6.89531H167.693V8.64503H172.132V10ZM180.689 7.86619C180.682 8.56324 180.405 9.11447 179.857 9.51989C179.316 9.92532 178.548 10.128 177.552 10.128C176.18 10.128 174.995 9.76884 174 9.05045L174.778 7.94087C175.568 8.48144 176.478 8.75528 177.51 8.76239C178.143 8.74105 178.609 8.65214 178.907 8.49566C179.213 8.33919 179.37 8.1258 179.377 7.85552C179.398 7.59235 179.249 7.37897 178.929 7.21538C178.609 7.04467 178.107 6.92376 177.424 6.85263C176.222 6.7246 175.419 6.48277 175.013 6.12714C174.608 5.76439 174.409 5.29851 174.416 4.72949C174.43 4.1178 174.722 3.63769 175.291 3.28917C175.86 2.93354 176.557 2.74861 177.382 2.73438C178.349 2.73438 179.302 3.01533 180.241 3.57723L179.494 4.66548C178.861 4.29562 178.125 4.11069 177.286 4.11069C176.923 4.10357 176.578 4.14625 176.251 4.23872C175.931 4.33118 175.778 4.49477 175.792 4.72949C175.778 4.94287 175.917 5.11358 176.208 5.24161C176.5 5.36252 176.998 5.45854 177.702 5.52967C178.811 5.62925 179.587 5.9102 180.028 6.37252C180.469 6.83485 180.689 7.33274 180.689 7.86619ZM188.519 4.20671H186.118V10H184.763V4.20671H182.374V2.85174H188.519V4.20671Z" fill="#FEFBED"/>
<path d="M252.358 18.6401C253.687 18.6401 254.914 18.7935 256.039 19.1003C257.164 19.373 258.187 19.6798 259.107 20.0207C260.062 20.3616 260.931 20.6684 261.715 20.9411C262.533 21.2138 263.3 21.3331 264.016 21.299C264.459 21.2649 264.749 21.3842 264.885 21.6569C265.056 21.9296 265.141 22.2876 265.141 22.7307C265.141 23.3443 265.022 24.0261 264.783 24.776C264.544 25.4918 264.237 26.1736 263.863 26.8213C263.488 27.4689 263.061 28.0144 262.584 28.4575C262.107 28.8666 261.63 29.0711 261.153 29.0711C260.334 29.0711 259.482 28.6961 258.596 27.9462C257.744 27.1962 256.84 26.3952 255.886 25.543C254.966 24.6567 253.977 23.8386 252.92 23.0886C251.898 22.3387 250.79 21.9637 249.597 21.9637C248.881 21.9637 248.301 22.1683 247.858 22.5773C247.415 22.9864 247.193 23.617 247.193 24.4692C247.193 26.2077 248.114 27.6394 249.955 28.7643C251.795 29.8892 253.807 31.0311 255.988 32.1901C258.204 33.3491 260.232 34.6956 262.073 36.2296C263.914 37.7635 264.834 39.8088 264.834 42.3654C264.834 43.6949 264.612 44.9391 264.169 46.0981C263.76 47.2571 263.096 48.2797 262.175 49.166C261.289 50.0182 260.147 50.7 258.749 51.2113C257.386 51.6885 255.75 51.9271 253.841 51.9271C251.42 51.9271 249.426 51.6885 247.858 51.2113C246.324 50.7 245.097 50.0693 244.177 49.3194C243.29 48.5695 242.66 47.7173 242.285 46.7628C241.944 45.8083 241.773 44.8709 241.773 43.9505C241.773 42.4506 242.234 41.1723 243.154 40.1156C244.074 39.0248 245.25 38.4794 246.682 38.4794C247.159 38.4794 247.483 38.5817 247.654 38.7862C247.858 38.9907 247.977 39.2975 248.012 39.7066C248.148 41.4451 248.915 42.9449 250.313 44.2062C251.71 45.4674 254.062 46.0981 257.369 46.0981C259.312 46.0981 260.795 45.8254 261.817 45.28C262.84 44.7345 263.351 43.8312 263.351 42.57C263.351 41.3087 262.755 40.3542 261.562 39.7066C260.368 39.0589 258.357 38.4453 255.528 37.8658C253.21 37.3886 251.199 36.9284 249.494 36.4852C247.824 36.008 246.444 35.4456 245.353 34.7979C244.262 34.1502 243.444 33.3662 242.898 32.4458C242.387 31.4913 242.131 30.2983 242.131 28.8666C242.131 27.6053 242.421 26.3611 243.001 25.1339C243.58 23.8727 244.33 22.7818 245.25 21.8615C246.205 20.907 247.296 20.14 248.523 19.5605C249.784 18.9469 251.062 18.6401 252.358 18.6401Z" fill="#FEFBED"/>
<path d="M185.154 18.8094C185.836 18.7753 186.62 18.8094 187.507 18.9117C188.393 18.9799 189.296 19.0139 190.217 19.0139C191.035 19.0139 191.87 18.9799 192.722 18.9117C193.608 18.8435 194.341 18.8094 194.921 18.8094C195.296 18.8094 195.585 18.8946 195.79 19.0651C196.029 19.2355 196.148 19.5253 196.148 19.9343C196.148 20.4797 195.773 20.974 195.023 21.4172C194.307 21.8603 193.506 22.3716 192.62 22.9511C191.733 23.4965 190.915 24.1612 190.165 24.9453C189.415 25.7293 189.023 26.7008 188.989 27.8598C188.989 28.4393 189.023 29.087 189.092 29.8028C189.16 30.4846 189.194 31.1152 189.194 31.6947C189.16 33.1946 188.938 34.4899 188.529 35.5807C188.12 36.6716 187.677 37.6772 187.2 38.5975C186.757 39.5179 186.348 40.4383 185.973 41.3587C185.598 42.2791 185.41 43.3528 185.41 44.58C185.41 46.3867 186.058 47.6991 187.353 48.5172C188.683 49.3353 190.131 49.7443 191.699 49.7443C193.336 49.7443 194.478 49.233 195.125 48.2104C195.773 47.1877 196.097 46.0117 196.097 44.6823C196.097 43.9664 195.977 43.1313 195.739 42.1768C195.534 41.1882 195.296 40.1656 195.023 39.1089C194.784 38.0521 194.546 37.0124 194.307 35.9898C194.103 34.9672 194 34.0468 194 33.2287C194 31.2175 194.495 29.6665 195.483 28.5756C196.506 27.4507 197.886 26.8883 199.625 26.8883C201.261 26.8883 202.42 27.3826 203.102 28.3711C203.784 29.3256 204.124 30.5016 204.124 31.8992C204.124 33.2968 203.92 34.3536 203.511 35.0694C203.102 35.7512 202.676 36.0921 202.233 36.0921C201.892 36.0921 201.602 36.0068 201.363 35.8364C201.125 35.666 200.869 35.4785 200.596 35.274C200.324 35.0353 199.983 34.8308 199.574 34.6604C199.165 34.4899 198.636 34.4047 197.989 34.4047C197.341 34.4047 196.83 34.5751 196.455 34.916C196.08 35.2228 195.892 35.7001 195.892 36.3477C195.892 37.4045 196.386 38.393 197.375 39.3134C198.398 40.2338 199.488 41.2053 200.647 42.2279C201.841 43.2165 202.931 44.3243 203.92 45.5515C204.943 46.7787 205.454 48.2104 205.454 49.8466C205.454 50.392 205.335 50.8522 205.096 51.2272C204.891 51.5681 204.516 51.7385 203.971 51.7385C203.63 51.7385 203.068 51.7044 202.284 51.6362C201.5 51.6021 200.579 51.551 199.523 51.4828C198.5 51.3806 197.392 51.3124 196.199 51.2783C195.006 51.2101 193.83 51.176 192.671 51.176C191.819 51.176 190.864 51.2101 189.807 51.2783C188.751 51.3124 187.711 51.3635 186.688 51.4317C185.666 51.4999 184.694 51.551 183.774 51.5851C182.888 51.6533 180.995 51.6874 180.416 51.6874C180.007 51.6874 179.666 51.5851 179.393 51.3806C179.154 51.142 179.035 50.767 179.035 50.2557C179.035 49.8466 179.257 49.2842 179.7 48.5683C180.177 47.8525 181.848 47.0173 182.393 46.0628C182.939 45.0743 183.433 43.9664 183.876 42.7392C184.353 41.5121 184.592 40.1826 184.592 38.7509C184.592 37.4897 184.37 36.2625 183.927 35.0694C183.518 33.8763 183.058 32.6492 182.547 31.3879C182.069 30.1267 181.626 28.8143 181.217 27.4507C180.808 26.0531 180.604 24.5533 180.604 22.9511C180.638 21.6899 181.064 20.6843 181.882 19.9343C182.734 19.1844 183.825 18.8094 185.154 18.8094Z" fill="#FEFBED"/>
<path d="M97.0784 24.3939C96.3966 24.3939 95.7489 24.8712 95.1353 25.8256C94.5558 26.746 94.0445 28.0073 93.6014 29.6094C93.1582 31.2115 92.8003 33.1034 92.5276 35.2851C92.289 37.4667 92.1697 39.7847 92.1697 42.239C92.1697 44.557 92.4424 46.5 92.9878 48.0681C93.5332 49.6021 94.5218 50.369 95.9535 50.369C96.7716 50.369 97.4022 50.1645 97.8453 49.7555C98.3226 49.3464 98.6805 48.6646 98.9191 47.7102C99.1918 46.7557 99.3963 45.4604 99.5327 43.8241C99.7031 42.1879 99.8906 40.1597 100.095 37.7394C100.129 36.8872 100.283 36.3077 100.555 36.0009C100.828 35.6941 101.101 35.5407 101.373 35.5407C101.919 35.5407 102.345 35.8646 102.652 36.5122C102.959 37.1258 103.555 37.978 104.441 39.0688C105.259 40.0574 105.856 40.8414 106.231 41.4209C106.606 42.0004 106.793 42.631 106.793 43.3128C106.793 44.7786 106.453 46.0569 105.771 47.1477C105.123 48.2044 104.254 49.0907 103.163 49.8066C102.106 50.4883 100.879 50.9997 99.4816 51.3405C98.084 51.6814 96.6863 51.8519 95.2887 51.8519C91.6413 51.8519 88.829 51.2042 86.8519 49.9088C84.8748 48.6135 83.8863 46.4319 83.8863 43.3639C83.8863 41.4891 84.3806 39.7165 85.3691 38.0462C86.3577 36.3418 87.4314 34.7397 88.5904 33.2398C89.7835 31.7058 90.8743 30.2571 91.8629 28.8936C92.8514 27.53 93.3457 26.2517 93.3457 25.0586C93.3457 24.411 93.1582 23.9337 92.7833 23.6269C92.4424 23.2861 91.914 23.1156 91.1982 23.1156C90.346 23.1156 89.579 23.4054 88.8972 23.9849C88.2155 24.5303 87.5848 25.1439 87.0053 25.8256C86.4599 26.5074 85.9316 27.138 85.4202 27.7175C84.943 28.2629 84.4828 28.5356 84.0397 28.5356C83.6647 28.5356 83.375 28.4504 83.1704 28.28C82.9659 28.0754 82.8636 27.7686 82.8636 27.3596C82.8636 27.0869 82.8977 26.5585 82.9659 25.7745C83.0682 24.9564 83.1193 24.2405 83.1193 23.6269C83.1193 23.0474 83.0682 22.4339 82.9659 21.7862C82.8636 21.1385 82.8125 20.6272 82.8125 20.2522C82.8125 19.8091 82.8807 19.4512 83.017 19.1784C83.1875 18.8717 83.5965 18.7183 84.2442 18.7183C85.5055 18.7183 87.0565 18.7864 88.8972 18.9228C90.7721 19.0591 92.8855 19.1273 95.2376 19.1273C96.1921 19.1273 97.2318 19.1103 98.3567 19.0762C99.5157 19.0421 100.589 19.008 101.578 18.9739C102.567 18.9057 103.436 18.8546 104.186 18.8205C104.936 18.7864 105.413 18.7694 105.617 18.7694C106.163 18.7694 106.572 18.9228 106.845 19.2296C107.117 19.5023 107.254 19.8773 107.254 20.3545C107.254 21.2408 107.1 22.2123 106.793 23.269C106.521 24.2917 106.163 25.2461 105.72 26.1324C105.311 27.0187 104.833 27.7516 104.288 28.3311C103.777 28.9106 103.282 29.2003 102.805 29.2003C102.226 29.2003 101.731 28.9617 101.322 28.4845C100.913 27.9732 100.504 27.4107 100.095 26.7971C99.7202 26.1836 99.2941 25.6381 98.8168 25.1609C98.3737 24.6496 97.7942 24.3939 97.0784 24.3939Z" fill="#FEFBED"/>
<path d="M42.0566 18.6592C42.3634 18.6592 42.8065 18.6762 43.386 18.7103C43.9996 18.7444 44.6984 18.7785 45.4824 18.8126C46.2664 18.8126 47.0845 18.8296 47.9368 18.8637C48.823 18.8978 49.6752 18.9148 50.4934 18.9148C51.7546 18.9148 52.9988 18.8978 54.226 18.8637C55.4532 18.7955 56.6292 18.7614 57.7541 18.7614C60.1062 18.7614 61.9981 19.4432 63.4298 20.8067C64.8956 22.1702 65.6285 23.8065 65.6285 25.7154C65.6285 27.5221 65.0831 28.9708 63.9922 30.0616C62.9355 31.1184 61.7765 32.0047 60.5153 32.7205C59.254 33.4364 58.078 34.084 56.9871 34.6635C55.9304 35.243 55.402 35.9418 55.402 36.7599C55.402 37.2713 55.6407 37.6462 56.1179 37.8848C56.5951 38.0894 57.1746 38.2428 57.8564 38.345C59.9017 38.5155 61.4186 38.9927 62.4071 39.7767C63.4298 40.5608 64.1286 41.9243 64.5036 43.8673C64.674 44.8218 64.9467 45.674 65.3217 46.4239C65.6966 47.1398 66.1568 47.7193 66.7022 48.1624C67.1795 48.5033 67.5033 48.8101 67.6737 49.0828C67.8783 49.3555 67.9805 49.6452 67.9805 49.952C67.9805 50.4974 67.6737 50.9065 67.0602 51.1792C66.4466 51.4178 65.458 51.5371 64.0945 51.5371C60.9243 51.5371 58.7427 50.8383 57.5496 49.4407C56.3565 48.0431 55.7429 46.0149 55.7088 43.356C55.6747 41.7879 55.2998 40.5949 54.5839 39.7767C53.9022 38.9586 52.692 38.5325 50.9535 38.4984C50.5445 38.4643 50.2207 38.345 49.982 38.1405C49.7775 37.9019 49.6752 37.6462 49.6752 37.3735C49.6752 37.1008 49.7605 36.8793 49.9309 36.7088C50.1354 36.5043 50.4081 36.3679 50.749 36.2998C53.3056 35.7543 55.0782 34.6976 56.0668 33.1296C57.0553 31.5274 57.5496 29.7548 57.5496 27.8118C57.5496 25.8006 57.1917 24.3689 56.4758 23.5167C55.7941 22.6304 54.7714 22.1873 53.4079 22.1873C52.3512 22.1873 51.3626 22.5282 50.4422 23.2099C49.5559 23.8917 48.789 24.8462 48.1413 26.0733C47.4936 27.2664 46.9823 28.7152 46.6073 30.4196C46.2664 32.0899 46.096 33.9306 46.096 35.9418C46.096 37.9871 46.471 39.7597 47.2209 41.2596C48.0049 42.7254 48.8571 44.0037 49.7775 45.0945C50.6979 46.1512 51.533 47.0886 52.283 47.9067C53.067 48.7249 53.459 49.543 53.459 50.3611C53.459 50.702 53.3738 50.9747 53.2034 51.1792C53.0329 51.3496 52.7261 51.4349 52.283 51.4349C51.9421 51.4349 51.1922 51.3837 50.0332 51.2815C48.8742 51.2133 47.7322 51.1792 46.6073 51.1792C45.4824 51.1792 44.2893 51.2133 43.0281 51.2815C41.8009 51.3156 40.8123 51.3326 40.0624 51.3326C39.7215 51.3326 39.4488 51.2133 39.2443 50.9747C39.0398 50.702 38.9375 50.3611 38.9375 49.952C38.9375 49.4748 39.2272 48.7589 39.8067 47.8045C40.4203 46.85 41.068 45.7592 41.7498 44.532C42.4656 43.2708 43.1133 41.9072 43.6928 40.4415C44.3064 38.9416 44.6132 37.4247 44.6132 35.8907C44.6132 33.3341 44.4086 31.1525 43.9996 29.3458C43.5905 27.505 43.1303 25.9711 42.619 24.7439C42.1077 23.4826 41.6475 22.477 41.2384 21.7271C40.8294 20.9431 40.6249 20.3295 40.6249 19.8863C40.6249 19.4432 40.7442 19.1364 40.9828 18.966C41.2555 18.7614 41.6134 18.6592 42.0566 18.6592Z" fill="#FEFBED"/>
<path d="M79.6196 51.4569H70.3438V18.5278H79.6196C79.6196 40.4806 79.6196 51.4569 79.6196 51.4569Z" fill="#FEFBED"/>
<path d="M208.181 49.2991C207.658 49.2991 207.188 49.7695 207.188 50.3966C207.188 51.076 207.501 51.5464 208.181 51.5464C209.749 51.5464 214.777 51.2328 217.913 51.2328C224.654 51.2328 234.271 51.5464 238.034 51.5464C238.974 51.5464 239.549 50.9715 239.549 50.0831C239.549 48.9855 239.236 47.2609 239.236 44.8046C239.236 42.7141 239.549 40.5713 239.549 39.7351C239.549 39.0557 239.236 38.4808 238.452 38.4808C233.33 38.4808 232.076 49.2469 225.7 49.2469C224.132 49.2469 223.714 48.4107 223.557 46.1111C223.452 43.6548 223.4 39.9964 223.4 36.3903C223.4 35.6586 223.661 35.2405 224.393 35.2405C227.581 35.2405 228.156 40.5713 230.978 41.0939C231.553 41.1462 232.128 41.0417 232.128 40.1532C232.128 38.9512 231.971 37.6446 231.971 34.4566C231.971 31.739 232.233 30.4847 232.233 29.4394C232.233 28.4987 231.814 28.1851 231.292 28.1851C228.679 28.1851 227.111 33.15 224.289 33.15C223.714 33.15 223.4 32.7842 223.4 32.1571C223.452 29.3349 223.557 26.5127 223.766 24.1086C223.975 22.4362 224.341 20.8161 226.118 20.8161C231.971 20.8161 233.33 31.1641 238.086 31.1641C238.87 31.1641 239.288 30.5369 239.288 29.753C239.288 28.9168 239.027 26.7218 239.027 24.6835C239.027 22.5408 239.236 20.9206 239.236 20.0322C239.236 19.1437 238.556 18.6211 237.511 18.6211C234.375 18.6211 222.721 18.8301 217.808 18.8301C214.516 18.8301 204.452 18.6211 201.473 18.6211C200.951 18.6211 200.48 19.0915 200.48 19.7709C200.48 20.398 200.794 20.8684 201.473 20.8684C203.162 20.5569 209.446 20.7116 209.916 20.7116C211.223 20.7116 211.328 22.3317 211.432 24.0041C211.589 26.6172 211.693 29.753 211.693 32.7842C211.693 37.8014 211.537 42.6095 211.432 46.1111C211.328 48.5674 211.066 49.4559 209.76 49.4559C209.551 49.4559 208.494 49.2991 208.181 49.2991Z" fill="#FEFBED"/>
<path d="M149.327 51.1016C150.947 51.1016 154.501 51.4675 155.181 51.4675C155.912 51.4675 156.226 50.8926 156.226 50.2132C156.226 48.4885 153.56 46.398 153.56 43.21C153.56 41.8512 154.031 41.2763 157.794 41.2763C162.079 41.2763 162.602 41.5899 162.602 45.9277C162.602 48.3317 161.818 49.377 160.773 49.377C159.937 49.377 159.518 49.2202 159.1 49.2202C158.473 49.2202 158.055 49.6906 158.055 50.3177C158.055 50.9971 158.316 51.4675 159.1 51.4675C159.727 51.4675 166.156 51.1539 168.978 51.1539C172.427 51.1539 175.667 51.4675 176.974 51.4675C177.549 51.4675 177.81 51.0494 177.81 50.579C177.81 50.0564 177.549 49.6906 177.079 48.8544C173.838 42.7397 169.03 27.3222 169.03 20.319C169.03 19.0647 168.298 18.5421 167.358 18.5421C166.522 18.5421 162.968 18.8557 159.205 18.8557C155.703 18.8557 145.954 18.5371 144.177 18.5371C143.393 18.5371 142.975 19.112 142.975 19.6869C142.975 20.314 143.393 20.8889 144.177 20.8889C144.752 20.8889 148.805 20.6326 149.432 20.6326C150.582 20.6326 151.993 21.1552 151.993 23.6638C151.993 31.2419 142.742 45.2483 142.742 50.2655C142.742 51.1539 143.108 51.4675 143.944 51.4675C145.042 51.4675 147.289 51.1016 149.327 51.1016ZM152.986 33.3846C152.986 27.9493 154.397 22.8276 156.487 22.8276C157.532 22.8276 157.898 23.6638 159.048 27.1654C160.407 30.8238 161.348 35.2661 161.295 37.2521C161.243 38.4542 160.877 39.1858 157.219 39.1858C153.665 39.1858 152.986 38.5586 152.986 33.3846Z" fill="#FEFBED"/>
<path d="M124.011 22.4197C124.063 21.4789 124.168 20.5905 125.056 20.5905C125.422 20.5905 125.788 20.7473 126.154 20.7473C126.99 20.7473 127.304 20.2246 127.304 19.702C127.304 19.0226 126.99 18.5522 126.154 18.5522C123.384 18.5522 121.241 18.6568 118.21 18.6568C115.074 18.6568 112.357 18.5522 109.534 18.5522C109.012 18.5522 108.594 18.9181 108.594 19.6498C108.594 20.2769 108.855 20.7473 109.534 20.7473C109.9 20.7473 110.371 20.5905 110.893 20.5905C112.148 20.5905 112.2 21.4267 112.2 26.9665C112.2 31.3565 112.043 35.2762 112.043 38.9346C112.043 48.0805 115.283 52.0002 125.736 52.0002C135.195 52.0002 138.697 47.6101 138.697 39.3527C138.697 37.3667 138.592 35.0149 138.592 32.9244C138.592 28.2208 139.324 24.0921 140.996 21.3222C141.519 20.5382 141.624 20.1724 141.624 19.5975C141.624 19.0226 141.258 18.5522 140.422 18.5522C138.958 18.5522 137.077 18.709 135.143 18.709C133.575 18.709 133.165 18.5522 131.649 18.5522C131.022 18.5522 130.343 18.8658 130.343 20.0156C130.343 27.4369 136.293 32.4018 136.293 40.0321C136.293 43.9518 134.673 45.6242 131.38 45.6242C125.422 45.6242 123.907 40.3979 123.907 30.2068C123.907 27.3323 123.907 24.876 124.011 22.4197Z" fill="#FEFBED"/>
<path fill-rule="evenodd" clip-rule="evenodd" d="M5.84348 42.0611C6.96183 42.0416 8.07837 41.9647 9.18854 41.8308C8.98478 42.387 8.64654 42.8865 8.20285 43.2863C7.58885 43.8647 7.03729 44.5037 6.55692 45.1932C5.94407 46.1762 5.6985 47.3377 5.86225 48.4789C5.88728 48.6999 5.96238 48.8873 6.21897 48.9118C6.31567 48.9194 6.41189 48.8925 6.49004 48.8361C6.56819 48.7797 6.62304 48.6976 6.64454 48.6048C6.6735 48.5308 6.70297 48.4573 6.7324 48.3838C6.83014 48.1398 6.92743 47.8969 7.00439 47.6467C7.18621 46.9829 7.58805 46.3973 8.14653 45.9824C8.79158 45.5067 9.51374 45.1745 10.2471 44.8371C10.8017 44.582 11.3626 44.3239 11.9015 43.9987C11.9082 44.1235 11.9082 44.2485 11.9015 44.3733C11.8281 45.0264 11.5737 45.6196 11.3186 46.2143C11.2367 46.4053 11.1546 46.5966 11.0785 46.79C10.4871 48.3376 10.4496 49.8453 11.307 51.3223C11.4196 51.5189 11.5323 51.6662 11.7826 51.614C11.8391 51.6069 11.8936 51.5888 11.9429 51.5607C11.9922 51.5326 12.0353 51.4952 12.0697 51.4506C12.1041 51.406 12.1291 51.3551 12.1432 51.3009C12.1573 51.2467 12.1602 51.1903 12.1518 51.135C12.1666 50.8624 12.1561 50.589 12.1206 50.3182C11.9078 49.3417 12.2176 48.5065 12.7839 47.7296C13.1172 47.2723 13.5221 46.8798 13.9301 46.4842C14.3878 46.0405 14.8495 45.5929 15.2184 45.0458C15.3965 45.4648 15.4849 45.9153 15.4781 46.3693C15.4667 47.2221 15.5022 48.075 15.5845 48.9241C15.7535 50.1739 16.4669 51.0828 17.4057 51.8658C17.487 51.9461 17.5958 51.9937 17.711 51.9994C17.8261 52.0051 17.9393 51.9684 18.0284 51.8965C18.1281 51.8397 18.2028 51.7486 18.2381 51.6408C18.2733 51.5331 18.2666 51.4163 18.2193 51.3131C18.1384 51.0798 18.0232 50.8464 17.908 50.613C17.8716 50.5393 17.8353 50.4656 17.8 50.3919C17.4834 49.779 17.3738 49.0832 17.487 48.4052C17.6261 47.6606 17.9018 46.9627 18.1805 46.2573C18.3972 45.7089 18.6157 45.1559 18.7731 44.5729C19.0911 44.8769 19.3331 45.2489 19.4803 45.6599C19.5481 45.8204 19.6143 45.9816 19.6806 46.143C19.9047 46.6888 20.1292 47.2358 20.4191 47.7572C21.1169 48.9917 22.2089 49.6795 23.5482 50.0541C23.6528 50.0993 23.7711 50.1034 23.8787 50.0658C23.9864 50.0281 24.0752 49.9514 24.1271 49.8515C24.1767 49.7592 24.1907 49.6526 24.1666 49.551C24.1424 49.4495 24.0817 49.3599 23.9957 49.2987C23.8411 49.1569 23.6814 49.0214 23.5215 48.8857C23.4321 48.8099 23.3427 48.734 23.2541 48.6569C22.6427 48.1666 22.2317 47.4766 22.0963 46.7132C21.9882 46.0496 21.9727 45.3827 21.9569 44.7045C21.9425 44.0865 21.9279 43.4592 21.8428 42.8165C22.2389 42.956 22.5951 43.1866 22.8817 43.489C23.5168 44.1435 24.2031 44.7482 24.9344 45.2976C25.9076 45.9885 27.0028 46.1359 28.1575 46.0315C28.4172 46.0069 28.6362 45.9179 28.6675 45.6108C28.6815 45.4987 28.6542 45.3854 28.5905 45.2913C28.5268 45.1973 28.4309 45.1287 28.3202 45.098C28.082 44.9967 27.8386 44.9076 27.5911 44.8309C27.1524 44.7162 26.7446 44.5086 26.3964 44.2226C26.0483 43.9367 25.7682 43.5793 25.5759 43.1757C25.2179 42.4495 24.8692 41.7157 24.5114 40.9626C24.3593 40.6426 24.2056 40.3192 24.0489 39.9914C24.7203 40.0392 25.3764 40.2111 25.9827 40.4981C26.7264 40.83 27.5128 41.0604 28.3202 41.1828C29.3935 41.318 30.3416 40.9771 31.2428 40.4612C31.3007 40.4374 31.3532 40.4026 31.3973 40.3588C31.4414 40.315 31.4763 40.263 31.4998 40.206C31.5234 40.1489 31.5352 40.0878 31.5346 40.0262C31.534 39.9646 31.521 39.9037 31.4963 39.8471C31.4547 39.7423 31.3752 39.6562 31.2731 39.6052C31.1709 39.5542 31.0532 39.5419 30.9424 39.5707L30.1664 39.6475C29.3295 39.7501 28.4848 39.5299 27.8101 39.0334C27.2743 38.6499 26.802 38.2018 26.3271 37.7512C25.9006 37.3466 25.4721 36.94 24.9939 36.5768C25.4504 36.3618 25.9566 36.2686 26.4615 36.3066C27.3308 36.3261 28.1999 36.2593 29.0555 36.107C30.1861 35.86 31.1829 35.21 31.853 34.283C31.9356 34.2042 31.9869 34.0992 31.9978 33.9866C32.0087 33.8741 31.9784 33.7615 31.9124 33.6688C31.8436 33.5679 31.7369 33.4977 31.6156 33.4735C31.4943 33.4493 31.3682 33.4732 31.2647 33.5399C31.1231 33.61 30.9797 33.6768 30.8373 33.743C30.6494 33.8305 30.4633 33.9171 30.2853 34.0097C29.9469 34.1886 29.5758 34.2997 29.1933 34.3366C28.8108 34.3735 28.4247 34.3354 28.0573 34.2246C27.2566 33.9784 26.4636 33.7068 25.6632 33.4328C25.3157 33.3138 24.9668 33.1943 24.6153 33.0762C24.8574 32.7894 25.1681 32.5657 25.5196 32.4252C26.406 32.0343 27.2718 31.5997 28.1136 31.1232C29.1212 30.4753 29.6907 29.5234 30.06 28.4302C30.1085 28.3208 30.1143 28.1977 30.0762 28.0844C30.0381 27.9711 29.9588 27.8756 29.8535 27.8161C29.7546 27.753 29.6351 27.7291 29.519 27.749C29.4029 27.7689 29.2988 27.8313 29.2276 27.9235C29.0054 28.1363 28.7965 28.3618 28.6018 28.5991C28.1128 29.208 27.4055 29.6111 26.6242 29.726C25.9963 29.8227 25.3592 29.8474 24.7177 29.8723C24.1156 29.8956 23.5096 29.9192 22.9036 30.0024C23.0346 29.6126 23.2614 29.2603 23.5639 28.9768C24.2786 28.2786 24.9308 27.5215 25.5133 26.7137C26.1451 25.7395 26.3787 24.5671 26.1673 23.4311C26.1641 23.3716 26.1489 23.3134 26.1226 23.2598C26.0962 23.2062 26.0592 23.1582 26.0138 23.1188C25.9683 23.0793 25.9153 23.0492 25.8579 23.03C25.8004 23.0109 25.7397 23.0032 25.6792 23.0073C25.5739 22.9954 25.4678 23.0215 25.3808 23.0809C25.2938 23.1403 25.2319 23.2288 25.2067 23.3298C25.1679 23.4449 25.1279 23.5601 25.0878 23.6752C25.0211 23.8671 24.9544 24.0591 24.8937 24.251C24.645 25.1139 24.0591 25.8456 23.2635 26.2869C22.7878 26.5637 22.2835 26.7886 21.7727 27.0164C21.2015 27.2711 20.6221 27.5295 20.0655 27.8683C20.0724 27.8067 20.0781 27.753 20.0833 27.7045C20.0943 27.6006 20.1027 27.521 20.1155 27.4414C20.218 26.8627 20.4424 26.3273 20.6668 25.7918C20.8056 25.4608 20.9443 25.1297 21.0543 24.7883C21.4517 23.5601 21.5017 22.3471 20.9354 21.1526C20.9052 21.0884 20.8785 21.0169 20.8513 20.9442C20.7318 20.6243 20.6028 20.2794 20.1312 20.4095C19.7037 20.5312 19.7524 20.8996 19.7969 21.2367C19.8052 21.2994 19.8134 21.361 19.8183 21.4198C19.884 22.2335 19.8715 23.035 19.4146 23.7474C18.9692 24.4427 18.4188 25.0531 17.8583 25.6747C17.4658 26.1099 17.0683 26.5507 16.6985 27.03C16.5002 26.5701 16.4052 26.0736 16.42 25.5745C16.4307 24.7542 16.3941 23.9341 16.3105 23.1179C16.1363 21.9395 15.5037 20.8731 14.5456 20.1424C14.4744 20.0656 14.3776 20.0164 14.2726 20.0034C14.1676 19.9905 14.0614 20.0147 13.973 20.0717C13.8864 20.1309 13.8246 20.219 13.7993 20.3196C13.774 20.4202 13.7868 20.5263 13.8353 20.6183C13.9274 20.8568 14.0318 21.0905 14.1482 21.3184C14.549 22.0244 14.6841 22.8461 14.53 23.6399C14.3745 24.3171 14.1251 24.9613 13.8729 25.6127C13.6379 26.2196 13.4006 26.8327 13.2345 27.4844C12.9018 27.1498 12.6392 26.7544 12.4616 26.3206C12.146 25.5282 11.7824 24.7551 11.3727 24.0053C10.7469 22.9306 9.72362 22.341 8.55645 21.9572C8.46679 21.9221 8.36759 21.9182 8.27536 21.9461C8.18313 21.974 8.10343 22.0321 8.04953 22.1107C7.99031 22.1869 7.96228 22.2821 7.97096 22.3776C7.97965 22.473 8.02442 22.5619 8.09646 22.6266C8.27492 22.8119 8.46291 22.9882 8.65971 23.1547C9.28241 23.6982 9.80811 24.297 9.94266 25.1415C10.0547 25.8281 10.0726 26.5195 10.0906 27.215C10.1077 27.8787 10.125 28.546 10.2243 29.2163C9.89661 29.142 9.59713 28.9781 9.36064 28.7434C8.95064 28.3679 8.5478 27.983 8.14587 27.599C8.08767 27.5434 8.02948 27.4878 7.9713 27.4322C6.92929 26.4435 5.73708 25.8109 4.23822 25.9399C4.16751 25.9463 4.08997 25.945 4.01087 25.9437C3.71537 25.9386 3.39807 25.9332 3.33389 26.3329C3.26606 26.7553 3.61367 26.8277 3.91248 26.8899C3.97208 26.9023 4.02973 26.9143 4.08176 26.9286C4.63357 27.0553 5.14831 27.3047 5.58618 27.6577C6.02405 28.0108 6.37332 28.4579 6.60699 28.9645C6.75639 29.2809 6.89529 29.6009 7.03494 29.9226C7.33989 30.6252 7.64843 31.336 8.07769 32.0352C7.59188 32.0013 7.11297 31.9032 6.65392 31.7435C6.3764 31.6443 6.10236 31.5384 5.8303 31.4331C5.47044 31.294 5.11405 31.1562 4.75766 31.0372C4.11036 30.8324 3.42611 30.7648 2.75019 30.8389C2.07428 30.913 1.4221 31.1272 0.836834 31.4671C0.728675 31.5056 0.639118 31.5824 0.585827 31.6824C0.532537 31.7825 0.519382 31.8985 0.548952 32.0076C0.614664 32.2563 0.827447 32.2839 1.04336 32.2839C1.28703 32.2835 1.53047 32.2691 1.77245 32.241C2.2798 32.1746 2.79587 32.2201 3.28305 32.3741C3.77023 32.5282 4.21627 32.7869 4.58868 33.1315C4.93392 33.4177 5.25218 33.73 5.57157 34.0433C6.03668 34.4996 6.50415 34.9582 7.06071 35.3424C6.77946 35.5376 6.44454 35.6447 6.10006 35.6494C5.57348 35.674 5.04489 35.6908 4.5159 35.7075C4.38477 35.7116 4.2536 35.7158 4.12244 35.7201C2.71119 35.7538 1.45953 36.2114 0.520786 37.2892C0.468372 37.3468 0.402536 37.4026 0.335477 37.4594C0.102276 37.6569 -0.145708 37.867 0.104613 38.2104C0.376118 38.5829 0.716458 38.3714 1.00405 38.1927C1.05786 38.1593 1.10982 38.127 1.15914 38.0999C1.95394 37.6945 2.75813 37.3844 3.66246 37.5656C4.33398 37.6964 4.96845 37.9356 5.61041 38.1775C6.23382 38.4125 6.86428 38.6501 7.5426 38.7938C7.14555 39.1654 6.68748 39.4685 6.18768 39.6905C5.65572 39.9423 5.12377 40.191 4.59181 40.4367C3.93399 40.7337 3.35389 41.174 2.89569 41.7242C2.43748 42.2745 2.11325 42.92 1.94768 43.6118C1.94196 43.6317 1.93595 43.6516 1.92997 43.6713C1.87055 43.8677 1.81414 44.0541 2.07285 44.2075C2.3576 44.3764 2.53283 44.1891 2.69868 44.0048C2.85722 43.8267 3.01368 43.6456 3.16805 43.4613C3.48477 43.0524 3.88784 42.7156 4.34963 42.4739C4.81143 42.2322 5.32102 42.0914 5.84348 42.0611ZM12.155 26.5417C12.4679 27.1866 12.8215 27.8069 13.5694 28.1968H13.585C13.6898 27.2168 13.9639 26.2615 14.3954 25.3718C15.0932 23.7658 15.2653 22.1905 14.2671 20.6337C14.2489 20.5855 14.2393 20.5346 14.239 20.4832C14.9869 20.8056 15.7066 21.9142 15.8943 22.9766C15.9954 23.5487 16.0012 24.1271 16.0071 24.7054C16.0121 25.2011 16.0171 25.6968 16.0821 26.1886C16.0838 26.4104 16.1306 26.6296 16.2197 26.8334C16.6084 27.4147 16.3524 27.8467 16.0452 28.3649L16.032 28.3872C14.4361 31.028 13.8697 33.7886 15.184 36.7242C15.3416 37.1039 15.4468 37.5025 15.4969 37.9095C15.7566 39.7089 15.3749 41.4377 14.9086 43.1573C14.8017 43.5446 14.673 43.9254 14.5444 44.3061C14.4547 44.5715 14.365 44.8368 14.2828 45.1041C14.149 45.5459 13.8972 45.9445 13.5537 46.2587C13.2212 46.5839 12.9078 46.9274 12.615 47.2874C12.2495 47.712 11.9775 48.2061 11.816 48.7388C11.6544 49.2714 11.6069 49.8311 11.6762 50.3827C11.7075 50.4794 11.7181 50.5814 11.7073 50.6824C11.6965 50.7833 11.6646 50.8809 11.6136 50.9692C11.33 50.5102 11.1437 49.9998 11.0657 49.4685C10.9878 48.9372 11.0198 48.3959 11.1599 47.877C11.3491 47.1688 11.5961 46.4767 11.8984 45.8073C12.2157 45.1219 12.3482 44.368 12.2833 43.6179C12.2676 43.3876 12.1831 43.2863 11.9704 43.446C11.2895 43.9615 10.5174 44.3054 9.74574 44.649C9.53851 44.7413 9.33132 44.8336 9.12595 44.9291C7.78042 45.5586 6.81977 46.4829 6.47556 47.9507C6.4705 47.9706 6.46685 47.9925 6.46303 48.0153C6.44564 48.1196 6.42476 48.2448 6.25027 48.2977C6.1653 47.6908 6.21078 47.0731 6.38378 46.4845C6.55677 45.8958 6.85345 45.3493 7.25472 44.88C7.59354 44.466 7.96595 44.0745 8.33889 43.6824C8.49981 43.5132 8.66083 43.3439 8.8193 43.1727C9.21146 42.7385 9.50765 42.2293 9.6892 41.6772C9.77369 41.45 9.75491 41.2965 9.46077 41.3702C8.60138 41.5981 7.72476 41.6213 6.8488 41.6445C6.54465 41.6526 6.24059 41.6606 5.93735 41.6772C5.34423 41.691 4.76197 41.8363 4.23416 42.1022C3.70636 42.3681 3.24668 42.7477 2.88956 43.2126C2.81002 43.3253 2.7024 43.4289 2.59534 43.5319C2.55077 43.5748 2.5063 43.6176 2.46399 43.6609C2.45826 43.6684 2.44786 43.6713 2.42637 43.6774C2.41267 43.6812 2.39448 43.6863 2.37012 43.6947C2.57528 42.7005 3.16097 41.8214 4.00666 41.2381C4.64965 40.8336 5.32702 40.4843 6.03122 40.1941C6.75743 39.904 7.41946 39.4785 7.98069 38.9412C8.23102 38.6864 8.24353 38.5298 7.83048 38.4561C6.81329 38.2357 5.82149 37.9147 4.87031 37.498C4.24028 37.2223 3.54989 37.1059 2.86222 37.1596C2.17456 37.2132 1.51156 37.4351 0.933837 37.8051C0.829162 37.8947 0.697056 37.9477 0.558339 37.9555C0.936967 37.1756 2.05407 36.4263 3.12737 36.2237C4.06038 36.0964 5.00168 36.0369 5.94361 36.0456C6.65123 35.9961 7.33122 35.7559 7.90871 35.3516C7.10632 34.9402 6.49115 34.3431 5.88182 33.7517C5.43134 33.3144 4.98404 32.8802 4.46665 32.5265C3.74198 31.9803 2.8315 31.7276 1.92265 31.8203C1.64573 31.8563 1.36579 31.8645 1.08717 31.8448C1.59829 31.4962 2.1897 31.2778 2.8082 31.2092C3.8283 31.0833 4.76704 31.375 5.68389 31.7619C6.45 32.1297 7.2851 32.3388 8.13714 32.3761L8.15238 32.3761C8.33916 32.3761 8.59618 32.3763 8.67536 32.2717C8.77337 32.1419 8.66385 32.0318 8.55843 31.9257C8.51912 31.8862 8.48038 31.8472 8.45319 31.808C7.98962 31.0877 7.61066 30.3182 7.32356 29.5142C6.70712 27.9757 5.7277 26.8488 4.00979 26.4865C3.98154 26.4805 3.95719 26.4618 3.91407 26.4287C3.89034 26.4104 3.86092 26.3878 3.82204 26.3606C4.79309 26.1753 5.7996 26.3586 6.63828 26.8734C7.33887 27.3492 7.98143 27.9025 8.55332 28.5223C9.04934 29.0755 9.68985 29.4854 10.4058 29.7076C10.5904 29.7568 10.75 29.7752 10.6937 29.5357C10.5078 28.7467 10.4922 27.9446 10.4766 27.1421C10.463 26.4451 10.4495 25.7479 10.3244 25.0586C10.1444 24.1984 9.65723 23.4296 8.95072 22.8907C8.76708 22.7359 8.60129 22.5619 8.45631 22.3717C8.98734 22.4912 9.48906 22.7124 9.93263 23.0228C10.3762 23.3332 10.7529 23.7266 11.041 24.1803C11.3355 24.66 11.5543 25.1724 11.773 25.6844C11.8959 25.9723 12.0187 26.26 12.155 26.5417ZM19.2127 35.6126C19.6205 35.6098 20.0113 35.4509 20.3016 35.1694C20.5944 34.8855 20.7615 34.4997 20.7664 34.0957C20.7706 33.6992 20.6152 33.3172 20.3339 33.0325C20.0527 32.7479 19.6683 32.5837 19.2644 32.5757C18.8522 32.5845 18.4602 32.7527 18.1736 33.0437C17.8871 33.3346 17.7292 33.7248 17.7343 34.1294C17.7313 34.3229 17.7676 34.5151 17.841 34.6947C17.9143 34.8743 18.0233 35.0378 18.1616 35.1758C18.2999 35.3138 18.4647 35.4234 18.6465 35.4984C18.8258 35.5724 19.0182 35.6112 19.2127 35.6126ZM10.1704 38.0022C10.0938 38.1883 10.0557 38.3876 10.0581 38.5883C10.0467 38.7852 10.0762 38.9822 10.1448 39.1675C10.2134 39.3528 10.3198 39.5224 10.4574 39.666C10.595 39.8097 10.7609 39.9243 10.9451 40.003C11.1293 40.0817 11.3279 40.1227 11.5288 40.1237C11.9438 40.1237 12.3417 39.9619 12.6351 39.674C12.9285 39.386 13.0934 38.9955 13.0934 38.5883C13.0986 38.1922 12.9456 37.8099 12.6673 37.523C12.389 37.2361 12.0073 37.0674 11.6039 37.053C11.3993 37.053 11.1968 37.0928 11.008 37.1702C10.8192 37.2476 10.648 37.3609 10.5042 37.5038C10.3604 37.6466 10.2469 37.816 10.1704 38.0022Z" fill="white"/>
<path fill-rule="evenodd" clip-rule="evenodd" d="M296.391 42.0611C295.273 42.0416 294.156 41.9647 293.046 41.8308C293.25 42.387 293.588 42.8865 294.032 43.2863C294.646 43.8647 295.197 44.5037 295.677 45.1932C296.29 46.1762 296.536 47.3377 296.372 48.4789C296.347 48.6999 296.272 48.8873 296.015 48.9118C295.919 48.9194 295.822 48.8925 295.744 48.8361C295.666 48.7797 295.611 48.6976 295.59 48.6048C295.561 48.5308 295.531 48.4573 295.502 48.3838C295.404 48.1398 295.307 47.8969 295.23 47.6467C295.048 46.9829 294.646 46.3973 294.088 45.9824C293.443 45.5067 292.721 45.1745 291.987 44.8371C291.433 44.582 290.872 44.3239 290.333 43.9987C290.326 44.1235 290.326 44.2485 290.333 44.3733C290.406 45.0264 290.661 45.6196 290.916 46.2143C290.998 46.4053 291.08 46.5966 291.156 46.79C291.747 48.3376 291.785 49.8453 290.927 51.3223C290.815 51.5189 290.702 51.6662 290.452 51.614C290.395 51.6069 290.341 51.5888 290.291 51.5607C290.242 51.5326 290.199 51.4952 290.165 51.4506C290.13 51.406 290.105 51.3551 290.091 51.3009C290.077 51.2467 290.074 51.1903 290.083 51.135C290.068 50.8624 290.078 50.589 290.114 50.3182C290.327 49.3417 290.017 48.5065 289.45 47.7296C289.117 47.2723 288.712 46.8798 288.304 46.4842C287.847 46.0405 287.385 45.5929 287.016 45.0458C286.838 45.4648 286.75 45.9153 286.756 46.3693C286.768 47.2221 286.732 48.075 286.65 48.9241C286.481 50.1739 285.767 51.0828 284.829 51.8658C284.747 51.9461 284.639 51.9937 284.523 51.9994C284.408 52.0051 284.295 51.9684 284.206 51.8965C284.106 51.8397 284.032 51.7486 283.996 51.6408C283.961 51.5331 283.968 51.4163 284.015 51.3131C284.096 51.0798 284.211 50.8464 284.326 50.613C284.363 50.5393 284.399 50.4656 284.434 50.3919C284.751 49.779 284.861 49.0832 284.747 48.4052C284.608 47.6606 284.333 46.9627 284.054 46.2573C283.837 45.7089 283.619 45.1559 283.461 44.5729C283.143 44.8769 282.901 45.2489 282.754 45.6599C282.686 45.8204 282.62 45.9816 282.554 46.143C282.33 46.6888 282.105 47.2358 281.815 47.7572C281.118 48.9917 280.025 49.6795 278.686 50.0541C278.582 50.0993 278.463 50.1034 278.356 50.0658C278.248 50.0281 278.159 49.9514 278.107 49.8515C278.058 49.7592 278.044 49.6526 278.068 49.551C278.092 49.4495 278.153 49.3599 278.239 49.2987C278.393 49.1569 278.553 49.0214 278.713 48.8857C278.802 48.8099 278.892 48.734 278.98 48.6569C279.592 48.1666 280.003 47.4766 280.138 46.7132C280.246 46.0496 280.262 45.3827 280.277 44.7045C280.292 44.0865 280.307 43.4592 280.392 42.8165C279.996 42.956 279.639 43.1866 279.353 43.489C278.718 44.1435 278.031 44.7482 277.3 45.2976C276.327 45.9885 275.232 46.1359 274.077 46.0315C273.817 46.0069 273.598 45.9179 273.567 45.6108C273.553 45.4987 273.58 45.3854 273.644 45.2913C273.708 45.1973 273.803 45.1287 273.914 45.098C274.152 44.9967 274.396 44.9076 274.643 44.8309C275.082 44.7162 275.49 44.5086 275.838 44.2226C276.186 43.9367 276.466 43.5793 276.658 43.1757C277.016 42.4495 277.365 41.7157 277.723 40.9626C277.875 40.6426 278.029 40.3192 278.185 39.9914C277.514 40.0392 276.858 40.2111 276.252 40.4981C275.508 40.83 274.722 41.0604 273.914 41.1828C272.841 41.318 271.893 40.9771 270.992 40.4612C270.934 40.4374 270.881 40.4026 270.837 40.3588C270.793 40.315 270.758 40.263 270.735 40.206C270.711 40.1489 270.699 40.0878 270.7 40.0262C270.7 39.9646 270.713 39.9037 270.738 39.8471C270.78 39.7423 270.859 39.6562 270.961 39.6052C271.063 39.5542 271.181 39.5419 271.292 39.5707L272.068 39.6475C272.905 39.7501 273.75 39.5299 274.424 39.0334C274.96 38.6499 275.432 38.2018 275.907 37.7512C276.334 37.3466 276.762 36.94 277.24 36.5768C276.784 36.3618 276.278 36.2686 275.773 36.3066C274.904 36.3261 274.034 36.2593 273.179 36.107C272.048 35.86 271.051 35.21 270.381 34.283C270.299 34.2042 270.247 34.0992 270.237 33.9866C270.226 33.8741 270.256 33.7615 270.322 33.6688C270.391 33.5679 270.497 33.4977 270.619 33.4735C270.74 33.4493 270.866 33.4732 270.97 33.5399C271.111 33.61 271.255 33.6768 271.397 33.743C271.585 33.8305 271.771 33.9171 271.949 34.0097C272.287 34.1886 272.659 34.2997 273.041 34.3366C273.424 34.3735 273.81 34.3354 274.177 34.2246C274.978 33.9784 275.771 33.7068 276.571 33.4328C276.919 33.3138 277.268 33.1943 277.619 33.0762C277.377 32.7894 277.066 32.5657 276.715 32.4252C275.828 32.0343 274.963 31.5997 274.121 31.1232C273.113 30.4753 272.544 29.5234 272.174 28.4302C272.126 28.3208 272.12 28.1977 272.158 28.0844C272.196 27.9711 272.276 27.8756 272.381 27.8161C272.48 27.753 272.599 27.7291 272.715 27.749C272.831 27.7689 272.936 27.8313 273.007 27.9235C273.229 28.1363 273.438 28.3618 273.633 28.5991C274.122 29.208 274.829 29.6111 275.61 29.726C276.238 29.8227 276.875 29.8474 277.517 29.8723C278.119 29.8956 278.725 29.9192 279.331 30.0024C279.2 29.6126 278.973 29.2603 278.671 28.9768C277.956 28.2786 277.304 27.5215 276.721 26.7137C276.089 25.7395 275.856 24.5671 276.067 23.4311C276.07 23.3716 276.085 23.3134 276.112 23.2598C276.138 23.2062 276.175 23.1582 276.221 23.1188C276.266 23.0793 276.319 23.0492 276.376 23.03C276.434 23.0109 276.495 23.0032 276.555 23.0073C276.66 22.9954 276.767 23.0215 276.854 23.0809C276.941 23.1403 277.002 23.2288 277.028 23.3298C277.066 23.4449 277.106 23.5601 277.147 23.6752C277.213 23.8671 277.28 24.0591 277.341 24.251C277.589 25.1139 278.175 25.8456 278.971 26.2869C279.447 26.5637 279.951 26.7886 280.462 27.0164C281.033 27.2711 281.612 27.5295 282.169 27.8683C282.162 27.8067 282.156 27.753 282.151 27.7045C282.14 27.6006 282.132 27.521 282.119 27.4414C282.016 26.8627 281.792 26.3273 281.568 25.7918C281.429 25.4608 281.29 25.1297 281.18 24.7883C280.783 23.5601 280.733 22.3471 281.299 21.1526C281.329 21.0884 281.356 21.0169 281.383 20.9442C281.503 20.6243 281.632 20.2794 282.103 20.4095C282.531 20.5312 282.482 20.8996 282.437 21.2367C282.429 21.2994 282.421 21.361 282.416 21.4198C282.35 22.2335 282.363 23.035 282.82 23.7474C283.265 24.4427 283.816 25.0531 284.376 25.6747C284.769 26.1099 285.166 26.5507 285.536 27.03C285.734 26.5701 285.829 26.0736 285.814 25.5745C285.804 24.7542 285.84 23.9341 285.924 23.1179C286.098 21.9395 286.731 20.8731 287.689 20.1424C287.76 20.0656 287.857 20.0164 287.962 20.0034C288.067 19.9905 288.173 20.0147 288.261 20.0717C288.348 20.1309 288.41 20.219 288.435 20.3196C288.46 20.4202 288.448 20.5263 288.399 20.6183C288.307 20.8568 288.203 21.0905 288.086 21.3184C287.685 22.0244 287.55 22.8461 287.704 23.6399C287.86 24.3171 288.109 24.9613 288.361 25.6127C288.596 26.2196 288.834 26.8327 289 27.4844C289.333 27.1498 289.595 26.7544 289.773 26.3206C290.088 25.5282 290.452 24.7551 290.862 24.0053C291.488 22.9306 292.511 22.341 293.678 21.9572C293.768 21.9221 293.867 21.9182 293.959 21.9461C294.051 21.974 294.131 22.0321 294.185 22.1107C294.244 22.1869 294.272 22.2821 294.263 22.3776C294.255 22.473 294.21 22.5619 294.138 22.6266C293.959 22.8119 293.771 22.9882 293.575 23.1547C292.952 23.6982 292.426 24.297 292.292 25.1415C292.18 25.8281 292.162 26.5195 292.144 27.215C292.127 27.8787 292.109 28.546 292.01 29.2163C292.338 29.142 292.637 28.9781 292.874 28.7434C293.284 28.3679 293.687 27.983 294.089 27.599C294.147 27.5434 294.205 27.4878 294.263 27.4322C295.305 26.4435 296.497 25.8109 297.996 25.9399C298.067 25.9463 298.144 25.945 298.224 25.9437C298.519 25.9386 298.836 25.9332 298.9 26.3329C298.968 26.7553 298.621 26.8277 298.322 26.8899C298.262 26.9023 298.205 26.9143 298.153 26.9286C297.601 27.0553 297.086 27.3047 296.648 27.6577C296.21 28.0108 295.861 28.4579 295.627 28.9645C295.478 29.2809 295.339 29.6009 295.199 29.9226C294.894 30.6252 294.586 31.336 294.157 32.0352C294.642 32.0013 295.121 31.9032 295.58 31.7435C295.858 31.6443 296.132 31.5384 296.404 31.4331C296.764 31.294 297.12 31.1562 297.477 31.0372C298.124 30.8324 298.808 30.7648 299.484 30.8389C300.16 30.913 300.812 31.1272 301.398 31.4671C301.506 31.5056 301.595 31.5824 301.649 31.6824C301.702 31.7825 301.715 31.8985 301.685 32.0076C301.62 32.2563 301.407 32.2839 301.191 32.2839C300.947 32.2835 300.704 32.2691 300.462 32.241C299.955 32.1746 299.439 32.2201 298.951 32.3741C298.464 32.5282 298.018 32.7869 297.646 33.1315C297.3 33.4177 296.982 33.73 296.663 34.0433C296.198 34.4996 295.73 34.9582 295.174 35.3424C295.455 35.5376 295.79 35.6447 296.134 35.6494C296.661 35.674 297.189 35.6908 297.718 35.7075C297.85 35.7116 297.981 35.7158 298.112 35.7201C299.523 35.7538 300.775 36.2114 301.714 37.2892C301.766 37.3468 301.832 37.4026 301.899 37.4594C302.132 37.6569 302.38 37.867 302.13 38.2104C301.858 38.5829 301.518 38.3714 301.23 38.1927C301.177 38.1593 301.125 38.127 301.075 38.0999C300.28 37.6945 299.476 37.3844 298.572 37.5656C297.9 37.6964 297.266 37.9356 296.624 38.1775C296.001 38.4125 295.37 38.6501 294.692 38.7938C295.089 39.1654 295.547 39.4685 296.047 39.6905C296.579 39.9423 297.111 40.191 297.643 40.4367C298.3 40.7337 298.88 41.174 299.339 41.7242C299.797 42.2745 300.121 42.92 300.287 43.6118C300.292 43.6317 300.298 43.6516 300.304 43.6713C300.364 43.8677 300.42 44.0541 300.162 44.2075C299.877 44.3764 299.702 44.1891 299.536 44.0048C299.377 43.8267 299.221 43.6456 299.066 43.4613C298.75 43.0524 298.347 42.7156 297.885 42.4739C297.423 42.2322 296.913 42.0914 296.391 42.0611ZM290.079 26.5417C289.766 27.1866 289.413 27.8069 288.665 28.1968H288.649C288.545 27.2168 288.271 26.2615 287.839 25.3718C287.141 23.7658 286.969 22.1905 287.967 20.6337C287.986 20.5855 287.995 20.5346 287.995 20.4832C287.248 20.8056 286.528 21.9142 286.34 22.9766C286.239 23.5487 286.233 24.1271 286.227 24.7054C286.222 25.2011 286.217 25.6968 286.152 26.1886C286.151 26.4104 286.104 26.6296 286.015 26.8334C285.626 27.4147 285.882 27.8467 286.189 28.3649L286.202 28.3872C287.798 31.028 288.365 33.7886 287.05 36.7242C286.893 37.1039 286.788 37.5025 286.737 37.9095C286.478 39.7089 286.86 41.4377 287.326 43.1573C287.433 43.5446 287.561 43.9254 287.69 44.3061C287.78 44.5715 287.869 44.8368 287.952 45.1041C288.085 45.5459 288.337 45.9445 288.681 46.2587C289.013 46.5839 289.327 46.9274 289.619 47.2874C289.985 47.712 290.257 48.2061 290.418 48.7388C290.58 49.2714 290.628 49.8311 290.558 50.3827C290.527 50.4794 290.516 50.5814 290.527 50.6824C290.538 50.7833 290.57 50.8809 290.621 50.9692C290.904 50.5102 291.091 49.9998 291.169 49.4685C291.247 48.9372 291.215 48.3959 291.074 47.877C290.885 47.1688 290.638 46.4767 290.336 45.8073C290.019 45.1219 289.886 44.368 289.951 43.6179C289.967 43.3876 290.051 43.2863 290.264 43.446C290.945 43.9615 291.717 44.3054 292.489 44.649C292.696 44.7413 292.903 44.8336 293.108 44.9291C294.454 45.5586 295.415 46.4829 295.759 47.9507C295.764 47.9706 295.768 47.9925 295.771 48.0153C295.789 48.1196 295.81 48.2448 295.984 48.2977C296.069 47.6908 296.024 47.0731 295.851 46.4845C295.678 45.8958 295.381 45.3493 294.98 44.88C294.641 44.466 294.268 44.0745 293.895 43.6824C293.735 43.5132 293.574 43.3439 293.415 43.1727C293.023 42.7385 292.727 42.2293 292.545 41.6772C292.461 41.45 292.479 41.2965 292.774 41.3702C293.633 41.5981 294.51 41.6213 295.386 41.6445C295.69 41.6526 295.994 41.6606 296.297 41.6772C296.89 41.691 297.472 41.8363 298 42.1022C298.528 42.3681 298.988 42.7477 299.345 43.2126C299.424 43.3253 299.532 43.4289 299.639 43.5319C299.684 43.5748 299.728 43.6176 299.77 43.6609C299.776 43.6684 299.787 43.6713 299.808 43.6774C299.822 43.6812 299.84 43.6863 299.864 43.6947C299.659 42.7005 299.073 41.8214 298.228 41.2381C297.585 40.8336 296.907 40.4843 296.203 40.1941C295.477 39.904 294.815 39.4785 294.254 38.9412C294.003 38.6864 293.991 38.5298 294.404 38.4561C295.421 38.2357 296.413 37.9147 297.364 37.498C297.994 37.2223 298.684 37.1059 299.372 37.1596C300.06 37.2132 300.723 37.4351 301.301 37.8051C301.405 37.8947 301.537 37.9477 301.676 37.9555C301.297 37.1756 300.18 36.4263 299.107 36.2237C298.174 36.0964 297.233 36.0369 296.291 36.0456C295.583 35.9961 294.903 35.7559 294.326 35.3516C295.128 34.9402 295.743 34.3431 296.353 33.7517C296.803 33.3144 297.25 32.8802 297.768 32.5265C298.492 31.9803 299.403 31.7276 300.312 31.8203C300.589 31.8563 300.869 31.8645 301.147 31.8448C300.636 31.4962 300.045 31.2778 299.426 31.2092C298.406 31.0833 297.467 31.375 296.55 31.7619C295.784 32.1297 294.949 32.3388 294.097 32.3761L294.082 32.3761C293.895 32.3761 293.638 32.3763 293.559 32.2717C293.461 32.1419 293.571 32.0318 293.676 31.9257C293.715 31.8862 293.754 31.8472 293.781 31.808C294.245 31.0877 294.624 30.3182 294.911 29.5142C295.527 27.9757 296.507 26.8488 298.225 26.4865C298.253 26.4805 298.277 26.4618 298.32 26.4287C298.344 26.4104 298.373 26.3878 298.412 26.3606C297.441 26.1753 296.435 26.3586 295.596 26.8734C294.896 27.3492 294.253 27.9025 293.681 28.5223C293.185 29.0755 292.545 29.4854 291.829 29.7076C291.644 29.7568 291.484 29.7752 291.541 29.5357C291.727 28.7467 291.742 27.9446 291.758 27.1421C291.771 26.4451 291.785 25.7479 291.91 25.0586C292.09 24.1984 292.577 23.4296 293.284 22.8907C293.467 22.7359 293.633 22.5619 293.778 22.3717C293.247 22.4912 292.745 22.7124 292.302 23.0228C291.858 23.3332 291.481 23.7266 291.193 24.1803C290.899 24.66 290.68 25.1724 290.461 25.6844C290.339 25.9723 290.216 26.26 290.079 26.5417ZM283.022 35.6126C282.614 35.6098 282.223 35.4509 281.933 35.1694C281.64 34.8855 281.473 34.4997 281.468 34.0957C281.464 33.6992 281.619 33.3172 281.9 33.0325C282.182 32.7479 282.566 32.5837 282.97 32.5757C283.382 32.5845 283.774 32.7527 284.061 33.0437C284.347 33.3346 284.505 33.7248 284.5 34.1294C284.503 34.3229 284.467 34.5151 284.393 34.6947C284.32 34.8743 284.211 35.0378 284.073 35.1758C283.935 35.3138 283.77 35.4234 283.588 35.4984C283.409 35.5724 283.216 35.6112 283.022 35.6126ZM292.064 38.0022C292.141 38.1883 292.179 38.3876 292.176 38.5883C292.188 38.7852 292.158 38.9822 292.09 39.1675C292.021 39.3528 291.915 39.5224 291.777 39.666C291.639 39.8097 291.473 39.9243 291.289 40.003C291.105 40.0817 290.906 40.1227 290.706 40.1237C290.291 40.1237 289.893 39.9619 289.599 39.674C289.306 39.386 289.141 38.9955 289.141 38.5883C289.136 38.1922 289.289 37.8099 289.567 37.523C289.845 37.2361 290.227 37.0674 290.63 37.053C290.835 37.053 291.038 37.0928 291.226 37.1702C291.415 37.2476 291.586 37.3609 291.73 37.5038C291.874 37.6466 291.987 37.816 292.064 38.0022Z" fill="white"/>
</svg>
