<svg width="101" height="101" viewBox="0 0 101 101" fill="none" xmlns="http://www.w3.org/2000/svg">
<g filter="url(#filter0_d_286_4134)">
<path d="M50.5 1L55.9317 22.9459L69.82 5.10659L65.8559 27.3644L85.7994 16.7163L73.1249 35.4375L95.6752 33.8217L76.4819 45.7692L97.7398 53.4651L75.3464 56.5731L91.6362 72.25L69.9147 65.981L78.4198 86.9283L61.126 72.3664L60.3758 94.962L50.5 74.625L40.6242 94.962L39.874 72.3664L22.5802 86.9283L31.0853 65.981L9.36379 72.25L25.6536 56.5731L3.26021 53.4651L24.5181 45.7692L5.32481 33.8217L27.8751 35.4375L15.2006 16.7163L35.1441 27.3644L31.18 5.10659L45.0683 22.9459L50.5 1Z" fill="#B1E18C" stroke="black" stroke-width="1.05497" stroke-linejoin="round"/>
<path fill-rule="evenodd" clip-rule="evenodd" d="M52.6081 41.2964C52.6081 42.7591 53.1997 46.9014 54.8021 46.8737C56.4484 46.8459 56.9962 42.8622 56.9962 41.2964C56.9962 39.7306 56.4418 35.7469 54.8021 35.7191C53.1961 35.6913 52.6081 39.8352 52.6081 41.2964ZM61.3813 48.3757C61.451 48.3758 61.5197 48.3595 61.5819 48.3283C61.6441 48.2971 61.6982 48.2517 61.7397 48.1957C61.9201 47.9532 62.1554 47.757 62.4263 47.623C62.5589 47.5574 62.6982 47.5076 62.8413 47.4744C62.5848 53.9199 57.0522 59.3518 50.5383 59.3518C44.0324 59.3518 38.5046 53.9367 38.2356 47.499C38.3808 47.5323 38.5222 47.5825 38.6567 47.649C38.9274 47.7829 39.1625 47.9789 39.3428 48.221C39.3775 48.268 39.4211 48.3077 39.4712 48.3378C39.5212 48.3679 39.5767 48.3878 39.6345 48.3965C39.6922 48.4051 39.7511 48.4023 39.8078 48.3882C39.8645 48.3741 39.9178 48.349 39.9648 48.3143C40.0117 48.2796 40.0514 48.2359 40.0815 48.1859C40.1116 48.1358 40.1316 48.0803 40.1402 48.0226C40.1489 47.9648 40.1461 47.9059 40.132 47.8493C40.1179 47.7926 40.0928 47.7392 40.058 47.6923C39.7958 47.3384 39.4537 47.0515 39.0596 46.8549C38.6997 46.6754 38.3058 46.5758 37.9047 46.5624C37.8644 46.5506 37.8225 46.5446 37.7803 46.5446C37.7375 46.5446 37.695 46.5508 37.6542 46.5629C37.2596 46.5782 36.8721 46.6771 36.5177 46.8535C36.1226 47.0502 35.7797 47.3376 35.5171 47.6923C35.4681 47.7584 35.4384 47.8369 35.4313 47.9189C35.4243 48.0009 35.4401 48.0833 35.4771 48.1569C35.5141 48.2304 35.5708 48.2922 35.6409 48.3355C35.7105 48.3784 35.7906 48.4013 35.8724 48.4017L35.8711 48.4017H35.874L35.8724 48.4017C35.941 48.4014 36.0086 48.3852 36.0699 48.3543C36.132 48.3231 36.1859 48.2777 36.2272 48.2218C36.4077 47.9794 36.6431 47.7832 36.9139 47.6492C37.0518 47.581 37.1969 47.53 37.346 47.4967C37.6336 54.0844 43.6611 60.7108 50.5383 60.6901C57.4227 60.7108 63.46 54.067 63.7304 47.4691C63.8817 47.5023 64.029 47.5539 64.1688 47.6231C64.4393 47.7569 64.6743 47.9529 64.8545 48.195C64.8882 48.2443 64.9314 48.2863 64.9817 48.3186C65.0319 48.3508 65.0882 48.3726 65.147 48.3826C65.2059 48.3926 65.2662 48.3907 65.3243 48.3769C65.3824 48.3632 65.4371 48.3379 65.4852 48.3025C65.5333 48.2671 65.5738 48.2224 65.6042 48.1711C65.6347 48.1197 65.6545 48.0627 65.6624 48.0036C65.6704 47.9444 65.6663 47.8842 65.6506 47.8267C65.6348 47.7691 65.6075 47.7153 65.5705 47.6684C65.3079 47.3141 64.9652 47.0269 64.5704 46.8303C64.1756 46.6336 63.74 46.5332 63.2989 46.537C62.8574 46.5325 62.4211 46.6327 62.0257 46.8293C61.6303 47.026 61.2872 47.3136 61.0244 47.6684C60.9754 47.7346 60.9457 47.813 60.9387 47.8951C60.9316 47.9771 60.9475 48.0595 60.9845 48.133C61.0215 48.2066 61.0782 48.2684 61.1482 48.3116C61.2183 48.3549 61.299 48.3778 61.3813 48.3778V48.3757ZM46.2722 46.8737C44.6706 46.9014 44.0782 42.7591 44.0782 41.2964C44.0782 39.8352 44.6662 35.6913 46.2722 35.7191C47.9119 35.7469 48.4663 39.7306 48.4663 41.2964C48.4663 42.8622 47.9192 46.8459 46.2722 46.8737Z" fill="black"/>
</g>
<defs>
<filter id="filter0_d_286_4134" x="0.948661" y="0.472412" width="99.1027" height="100.374" filterUnits="userSpaceOnUse" color-interpolation-filters="sRGB">
<feFlood flood-opacity="0" result="BackgroundImageFix"/>
<feColorMatrix in="SourceAlpha" type="matrix" values="0 0 0 0 0 0 0 0 0 0 0 0 0 0 0 0 0 0 127 0" result="hardAlpha"/>
<feOffset dy="3.57143"/>
<feGaussianBlur stdDeviation="0.892857"/>
<feComposite in2="hardAlpha" operator="out"/>
<feColorMatrix type="matrix" values="0 0 0 0 0 0 0 0 0 0 0 0 0 0 0 0 0 0 0.05 0"/>
<feBlend mode="normal" in2="BackgroundImageFix" result="effect1_dropShadow_286_4134"/>
<feBlend mode="normal" in="SourceGraphic" in2="effect1_dropShadow_286_4134" result="shape"/>
</filter>
</defs>
</svg>
